<?xml version="1.0" encoding="UTF-8" standalone="no"?>
<!-- Created with Inkscape (http://www.inkscape.org/) -->

<svg
   width="210mm"
   height="297mm"
   viewBox="0 0 210 297"
   version="1.1"
   id="svg5"
   inkscape:version="1.2.1 (9c6d41e410, 2022-07-14)"
   sodipodi:docname="They.svg"
   xmlns:inkscape="http://www.inkscape.org/namespaces/inkscape"
   xmlns:sodipodi="http://sodipodi.sourceforge.net/DTD/sodipodi-0.dtd"
   xmlns="http://www.w3.org/2000/svg"
   xmlns:svg="http://www.w3.org/2000/svg">
  <sodipodi:namedview
     id="namedview7"
     pagecolor="#ffffff"
     bordercolor="#000000"
     borderopacity="0.25"
     inkscape:showpageshadow="2"
     inkscape:pageopacity="0.0"
     inkscape:pagecheckerboard="0"
     inkscape:deskcolor="#d1d1d1"
     inkscape:document-units="mm"
     showgrid="false"
     inkscape:zoom="0.50333193"
     inkscape:cx="397.3521"
     inkscape:cy="721.19406"
     inkscape:window-width="1366"
     inkscape:window-height="745"
     inkscape:window-x="-8"
     inkscape:window-y="-8"
     inkscape:window-maximized="1"
     inkscape:current-layer="layer2" />
  <defs
     id="defs2" />
  <g
     inkscape:groupmode="layer"
     id="layer3"
     inkscape:label="Слой 3">
    <rect
       style="fill:#00aa88;stroke-width:0.264583"
       id="rect900"
       width="205.53452"
       height="135.09557"
       x="-0.52566373"
       y="0" />
    <path
       style="fill:#2d5016;stroke-width:0.264583"
       d="m 82.003539,115.64602 c 7.884956,-18.398234 13.141592,-28.385845 21.026551,-32.06549 7.88495,-3.679645 8.41062,-6.833629 19.44956,-3.679645 11.03893,3.153981 38.37344,12.090265 44.15575,14.718583 5.7823,2.628318 27.33451,17.346902 27.33451,19.975222 0,2.62832 -6.30797,9.98761 -6.30797,9.98761 z"
       id="path681" />
    <path
       style="fill:#55d400;stroke-width:0.295853"
       d="M -5.3097299e-8,144.12036 C 2.7785569,122.98191 11.669942,113.0344 27.229866,109.30408 c 15.559921,-3.73031 66.129669,-10.569236 78.355324,-9.94751 12.22566,0.621715 80.57817,3.1086 85.02386,8.70407 4.44569,5.59547 9.44709,21.13846 10.55852,26.11222 1.11142,4.97376 5.0014,29.22081 1.66713,26.11221 -3.33427,-3.1086 -71.13107,-26.73394 -71.13107,-26.73394 0,0 -20.00562,-11.81266 -29.45271,-3.1086 C 92.803822,139.14662 -5.3097297e-8,144.12036 -5.3097299e-8,144.12036 Z"
       id="path571" />
    <circle
       style="fill:#ccff00;stroke-width:0.656895"
       id="path1062"
       cx="22.60354"
       cy="23.654867"
       r="18.923895" />
    <path
       style="fill:#338000;stroke-width:0.264583"
       d="m -1.0513274,225.50973 c 21.0265484,-4.20531 38.3734524,-2.10265 53.0920344,-2.10265 14.718583,0 105.132743,-1.577 124.056633,0.52566 18.9239,2.10266 31.01416,3.15398 31.01416,3.15398 l 0.52567,67.81061 -205.0088515,1.577 z"
       id="path1226" />
  </g>
  <g
     inkscape:groupmode="layer"
     id="layer2"
     inkscape:label="Слой 2">
    <path
       style="fill:#008000;stroke-width:0.264583"
       d="M 44.155751,99.876106 C 31.539823,80.426548 37.847788,58.348673 33.116813,46.258405 28.385841,34.16814 22.60354,29.437168 33.642477,20.500885 44.681415,11.564602 57.297343,7.8849558 65.707963,9.4619468 74.118583,11.038938 101.4531,-12.090265 105.13274,4.7309735 c 3.67965,16.8212385 9.46195,49.9380515 3.15398,58.3486715 -6.30796,8.41062 -23.129199,20.500885 -24.70619,28.385841 -1.576991,7.884956 -39.424779,8.41062 -39.424779,8.41062 z"
       id="path282" />
    <path
       style="fill:#008000;stroke-width:0.264583"
       d="m 145.60885,123.53097 c -7.88496,-4.20531 -15.76991,-40.476104 -18.39823,-55.194687 -2.62832,-14.718585 5.25664,-38.899115 11.5646,-44.681416 6.30796,-5.782301 26.28319,-24.18053071 30.48849,-20.5008847 4.20532,3.679646 21.02655,6.8336283 23.65487,14.1929207 2.62832,7.359291 5.25664,23.129203 6.30797,44.155751 1.05132,21.026549 7.35929,47.309736 -2.62832,53.092036 -9.98761,5.7823 -50.98938,8.93628 -50.98938,8.93628 z"
       id="path512" />
    <path
       style="fill:#008000;stroke-width:0.305326"
       d="M -3.1539823,150.36576 C 16.646469,131.11261 12.36529,129.04977 36.446921,126.98694 c 24.081629,-2.06284 51.909292,-8.93896 68.498859,-7.56374 16.58957,1.37523 77.59637,-2.06284 84.01813,0.68761 6.42177,2.75046 15.51927,24.06642 15.51927,24.06642 l -0.53514,55.009 L 83.539886,197.811 c 0,0 -28.897957,-1.37522 -44.417229,2.75046 -15.519272,4.12567 -41.2063447,-5.5009 -41.2063447,-5.5009 z"
       id="path515" />
    <path
       style="fill:#005544;stroke-width:0.264583"
       d="M 1.0513274,144.03186 C 2.1026548,117.74867 10.513274,106.18407 15.244248,97.247786 19.975221,88.311502 43.630087,85.157521 45.732742,84.106193 c 2.102657,-1.051327 26.80885,-0.525663 28.911504,-0.525663 2.102655,0 25.757524,5.256638 25.757524,5.256638 l -5.782302,24.706192 c 0,0 -27.334514,6.83363 -41.527434,9.46195 -14.192919,2.62832 -39.424778,3.15398 -42.053096,13.14159 -2.6283187,9.98761 -11.56460171,9.98761 -11.56460171,9.98761 z"
       id="path737" />
    <path
       style="fill:#66ff00;stroke-width:0.264583"
       d="m 96.196458,168.73805 c 10.513272,-22.07788 6.307962,-25.23186 17.872572,-28.9115 11.5646,-3.67965 34.16814,-9.98761 34.16814,-9.98761 0,0 6.83362,4.20531 -1.05133,16.29557 -7.88496,12.09027 -12.09027,12.09027 -23.65487,21.55221 -11.5646,9.46195 -27.334512,1.05133 -27.334512,1.05133 z"
       id="path1228" />
    <path
       style="fill:#55d400;stroke-width:0.264583"
       d="m 4.2053097,146.13451 c 13.1415933,-3.67964 13.6672563,-4.73097 25.7575223,1.57699 12.090265,6.30797 24.18053,11.03894 24.18053,17.34691 0,6.30796 -7.884957,9.98761 -21.552212,7.88495 C 18.923894,170.8407 4.2053097,146.13451 4.2053097,146.13451 Z"
       id="path1284" />
    <path
       style="fill:#abc837;stroke-width:0.264583"
       d="m 41.00177,260.20354 c 21.026548,-19.97522 15.76991,-21.02655 36.270794,-21.02655 20.500885,0 35.219466,2.10265 41.527436,-1.05133 6.30796,-3.15398 21.02655,-13.14159 2.62832,7.88496 -18.39823,21.02654 -41.527435,22.60353 -53.092037,23.12921 -11.564603,0.52564 -28.385841,-13.1416 -28.385841,-13.1416 z"
       id="path1286" />
  </g>
  <g
     inkscape:label="Слой 1"
     inkscape:groupmode="layer"
     id="layer1">
    <path
       style="fill:#552200;stroke-width:0.264583"
       d="M 54.143362,160.85309 C 53.092034,84.631857 52.040707,76.746901 52.040707,76.746901 l -4.205308,-27.860175 -1.576994,-23.129204 8.41062,26.808849 c 0,0 8.41062,11.564601 8.41062,5.256638 0,-6.307965 -4.730972,-17.872567 -4.205309,-21.552214 C 59.4,32.59115 62.553982,10.513274 65.182299,24.706194 67.81062,38.899115 69.387611,53.617698 71.490265,58.348673 73.592919,63.079645 67.81062,70.964601 77.798228,47.835399 87.785838,24.706194 100.40177,22.60354 100.40177,22.60354 L 80.426548,74.644246 c 0,0 -1.57699,88.311504 0,87.785844 1.576991,-0.52567 -26.283186,-1.577 -26.283186,-1.577 z"
       id="path113" />
    <path
       style="fill:#d45500;stroke-width:0.264583"
       d="m 59.4,75.16991 c 7.35929,5.782302 5.256636,31.53982 6.833627,37.84779 1.576993,6.30796 -2.628318,18.39823 0,27.33451 2.62832,8.93628 4.205311,14.19292 2.62832,17.3469 -1.576993,3.15398 -6.833629,-1.57699 -6.833629,-4.73097 C 62.028318,149.81416 59.4,75.16991 59.4,75.16991 Z"
       id="path223" />
    <path
       style="fill:#d45500;stroke-width:0.264583"
       d="m 82.529203,54.669025 c -11.038938,15.769913 -8.41062,11.038938 -10.513274,24.180533 -2.102655,13.141592 0,26.283182 0,29.437162 0,3.15399 2.628317,-14.192916 2.628317,-14.192916 0,0 -1.051327,-18.923894 2.102655,-23.129203 3.153984,-4.205311 5.782302,-16.295576 5.782302,-16.295576 z"
       id="path279" />
    <path
       style="fill:#502d16;stroke-width:0.264583"
       d="m 165.58407,160.32743 c -4.20531,-23.1292 -3.67965,-48.36106 -6.83363,-54.66902 -3.15398,-6.307968 5.7823,-28.385846 4.73097,-33.642481 -1.05132,-5.256639 1.577,-44.155751 1.577,-46.784071 0,-2.628318 8.41062,39.424778 8.41062,49.412388 0,9.987611 0.52566,29.437164 1.57699,41.001774 1.05132,11.5646 0.52566,45.20707 0.52566,45.20707 z"
       id="path338" />
    <path
       style="fill:#502d16;stroke-width:0.264583"
       d="m 172.4177,77.798228 c -0.52567,-11.038938 3.67964,-26.808848 7.35929,-34.168141 3.67965,-7.359292 14.71858,-17.346902 14.71858,-17.346902 L 181.35398,56.77168 178.2,88.311502 167.16106,91.99115 Z"
       id="path394" />
    <path
       style="fill:#502d16;stroke-width:0.264583"
       d="M 159.2761,102.50442 C 150.86548,77.272564 144.03186,49.938053 144.03186,49.938053 L 141.9292,34.693804 c 0,0 -3.15398,24.706196 -1.57699,31.539823 1.57699,6.833629 8.93628,37.322123 11.5646,40.476103 2.62832,3.15399 11.5646,13.66726 11.5646,13.66726 z"
       id="path396" />
    <path
       style="fill:#a05a2c;stroke-width:0.264583"
       d="m 152.96814,158.75044 c 3.15398,-18.39823 2.10265,-38.89911 6.30796,-45.20708 4.20531,-6.30796 9.98761,-22.603537 9.98761,-22.603537 l 1.05133,22.077877 -2.62832,30.48849 -2.62831,18.9239 z"
       id="path398" />
    <path
       style="fill:#ac9d93;stroke-width:0.284692"
       d="m -2.6283185,187.59598 c 6.3079646,-12.17208 76.2212375,-4.86883 92.5168135,-6.69465 16.295575,-1.82581 57.297345,18.86671 78.849555,13.38929 21.55221,-5.47744 37.32212,-3.65163 37.32212,-3.65163 l -1.57699,38.34202 c 0,0 -146.134507,-2.43442 -154.545127,0.6086 C 41.527433,232.63263 0,227.1552 0,227.1552 Z"
       id="path1170" />
  </g>
</svg>
