<?xml version="1.0" encoding="UTF-8" standalone="no"?>
<!-- Created with Inkscape (http://www.inkscape.org/) -->

<svg
   width="210mm"
   height="297mm"
   viewBox="0 0 210 297"
   version="1.1"
   id="svg1371"
   inkscape:version="1.2.1 (9c6d41e410, 2022-07-14)"
   sodipodi:docname="Theyк.svg"
   xmlns:inkscape="http://www.inkscape.org/namespaces/inkscape"
   xmlns:sodipodi="http://sodipodi.sourceforge.net/DTD/sodipodi-0.dtd"
   xmlns="http://www.w3.org/2000/svg"
   xmlns:svg="http://www.w3.org/2000/svg">
  <sodipodi:namedview
     id="namedview1373"
     pagecolor="#ffffff"
     bordercolor="#000000"
     borderopacity="0.25"
     inkscape:showpageshadow="2"
     inkscape:pageopacity="0.0"
     inkscape:pagecheckerboard="0"
     inkscape:deskcolor="#d1d1d1"
     inkscape:document-units="mm"
     showgrid="false"
     inkscape:zoom="0.50333193"
     inkscape:cx="397.3521"
     inkscape:cy="880.1349"
     inkscape:window-width="1366"
     inkscape:window-height="745"
     inkscape:window-x="-8"
     inkscape:window-y="-8"
     inkscape:window-maximized="1"
     inkscape:current-layer="layer5" />
  <defs
     id="defs1368" />
  <g
     inkscape:groupmode="layer"
     id="layer5"
     inkscape:label="Слой 3">
    <rect
       style="fill:#00ffff;stroke-width:0.264583"
       id="rect1649"
       width="206.58583"
       height="107.2354"
       x="0"
       y="0.52566373" />
    <circle
       style="fill:#ffff00;stroke-width:0.428143"
       id="path2400"
       cx="176.88583"
       cy="34.430973"
       r="23.392036" />
  </g>
  <g
     inkscape:groupmode="layer"
     id="layer4"
     inkscape:label="Слой 2">
    <path
       style="fill:#008000;stroke-width:0.264583"
       d="M 34.16814,94.093804 C 13.141593,89.888495 8.9362832,83.58053 9.4619468,70.438938 9.9876106,57.297343 15.244248,56.77168 19.449557,38.373452 23.654867,19.975221 21.552212,25.757522 39.950442,17.346903 58.348673,8.9362832 82.003539,2.6283185 110.38938,9.9876106 c 28.38584,7.3592924 56.24602,11.0389374 58.87433,31.5398224 2.62832,20.500885 -5.7823,47.835399 -26.80884,47.835399 -21.02655,0 -63.079649,10.513274 -66.759296,10.513274 -3.679645,0 -41.527434,-5.782302 -41.527434,-5.782302 z"
       id="path1378" />
    <rect
       style="fill:#d35f5f;stroke-width:0.264583"
       id="rect1432"
       width="204.48318"
       height="100.92744"
       x="2.6283185"
       y="132.99292" />
    <rect
       style="fill:#ff7f2a;stroke-width:0.264583"
       id="rect1590"
       width="48.886723"
       height="56.771679"
       x="134.56992"
       y="152.96812" />
    <rect
       style="fill:#ff7f2a;stroke-width:0.264583"
       id="rect1644"
       width="204.48318"
       height="28.911505"
       x="2.1026549"
       y="104.60707" />
    <path
       style="fill:#008000;stroke-width:0.264583"
       d="m 129.31327,139.30089 c -2.10265,-14.71859 -4.20531,-22.07788 13.14159,-30.4885 17.3469,-8.41062 20.50089,-26.808853 32.06549,-18.398233 11.5646,8.410619 22.07787,-4.205308 27.33451,14.192923 5.25664,18.39823 18.39823,32.06549 -2.62832,31.01416 -21.02654,-1.05133 -69.91327,3.67965 -69.91327,3.67965 z"
       id="path1757" />
    <rect
       style="fill:#ff9955;stroke-width:0.264583"
       id="rect1762"
       width="33.642479"
       height="26.283186"
       x="25.757523"
       y="114.59469" />
    <path
       style="fill:#aa0000;stroke-width:0.264583"
       d="m 206.06017,186.61062 -84.63186,-52.56637 -70.438931,-8.93628 -28.385839,-3.67965 -7.359292,7.35929 4.730973,24.18053 19.449558,-9.46194 71.490261,16.29557 87.78584,55.72036 z"
       id="path1922"
       sodipodi:nodetypes="cccccccccc" />
    <rect
       style="fill:#ffccaa;stroke-width:0.264583"
       id="rect2136"
       width="23.129204"
       height="25.757523"
       x="11.038938"
       y="124.5823" />
    <rect
       style="fill:#ffeeaa;stroke-width:0.264583"
       id="rect2138"
       width="207.1115"
       height="69.387611"
       x="2.1026549"
       y="230.76637" />
    <path
       style="fill:#008000;stroke-width:0.264583"
       d="m 4.2053097,291.74336 c 14.1929203,-7.3593 -24.1805307,5.78229 44.1557523,-7.88495 68.336278,-13.66726 73.067258,-6.30798 102.504418,-6.30798 29.43717,0 57.29735,3.67966 57.29735,3.67966 l -1.05133,15.24424 -204.4831815,2.62831 z"
       id="path2552" />
    <path
       style="fill:#008000;stroke-width:0.264583"
       d="m 6.3079645,238.65132 c 3.1539823,-9.98761 -3.679646,-12.09026 11.5646015,-19.97522 15.244247,-7.88495 19.449559,-16.29557 27.860176,-13.66725 8.41062,2.62832 28.911504,8.41062 31.014159,15.76991 C 78.849558,228.13805 74.644246,237.6 74.644246,237.6 Z"
       id="path2554" />
  </g>
  <g
     inkscape:label="Слой 1"
     inkscape:groupmode="layer"
     id="layer1">
    <path
       style="fill:#552200;stroke-width:0.264583"
       d="m 23.129203,174.52035 c 9.461947,-18.39823 15.769912,-12.09026 22.603539,-21.55221 6.833629,-9.46195 4.205311,-46.78407 6.307965,-49.41239 2.102655,-2.62832 0,-34.168139 -2.102654,-42.053096 C 47.835399,53.617698 35.745131,37.847788 33.642477,35.219468 31.539823,32.59115 31.014159,17.346903 37.847788,28.385841 c 6.833627,11.038938 14.192919,10.513274 19.449555,25.231857 5.256639,14.718585 13.667258,27.860178 12.090268,25.757523 -1.576991,-2.102657 1.57699,-9.98761 0.525663,-16.295576 -1.051327,-6.307965 -6.833629,-25.75752 -2.102654,-26.283184 4.730972,-0.525666 2.628318,-3.679648 10.513274,-10.513276 7.884954,-6.833628 11.038938,-8.410619 7.35929,9.461946 -3.679645,17.872567 -13.667255,32.591152 -10.513274,39.950443 3.153984,7.359292 5.782302,8.410619 19.975221,-5.7823 14.192919,-14.192922 16.821239,-22.077875 18.923899,-28.385841 2.10265,-6.307965 21.02654,-7.359293 2.10265,21.552212 -18.923894,28.911505 -36.796459,21.026548 -31.539823,47.835395 5.256638,26.80885 -2.628318,45.20708 -2.628318,52.04071 0,6.83363 12.090265,13.14159 12.090265,16.82124 0,3.67965 -11.038938,3.67965 -16.295576,-0.52567 -5.256636,-4.2053 -5.256636,-8.93628 -16.295574,0 -11.038937,8.93629 -41.001769,5.78231 -41.001769,11.56461 0,5.7823 2.628318,-16.29558 2.628318,-16.29558 z"
       id="path1375" />
  </g>
</svg>
